<svg width="1200" height="800" viewBox="0 0 1200 800" fill="none" xmlns="http://www.w3.org/2000/svg" xmlns:xlink="http://www.w3.org/1999/xlink">
<g id="genplan">
<rect id="Rectangle 1" width="1200" height="800" fill="#D9D9D9"/>
<rect id="build 1" width="1200" height="800" fill="url(#pattern0)"/>
<g id="builds">
<path id="build-purple" d="M882.5 152.5L782.5 179.5L748.5 515L873 704.5L969 669.5L1053.5 357.5L882.5 152.5Z" fill="#8C10A0" fill-opacity="0.5" stroke="#8C10A0" stroke-width="2"/>
<path id="build-blue" d="M478.5 104.5L467.5 121L478.5 328.5L519.5 398L581 384L572.5 278L626.5 265V132L601.5 88H581V83L478.5 104.5Z" fill="#62B4FF" fill-opacity="0.5" stroke="#62B4FF" stroke-width="2"/>
<path id="build-yellow" d="M188.5 214.5L106.5 232.5L126.5 293.5L214 616L480 535.5L447.5 203.5L393 106L235 141L251 179L180 194.5L188.5 214.5Z" fill="#E7FF57" fill-opacity="0.5" stroke="#E7FF57" stroke-width="2"/>
</g>
</g>
<defs>
<pattern id="pattern0" patternContentUnits="objectBoundingBox" width="1" height="1">
<use xlink:href="#image0_2_7" transform="scale(0.000833333 0.00125)"/>
</pattern>
<image id="image0_2_7" data-name="build.jpg" width="1200" height="800" xlink:href=""/>
</defs>
</svg>
